<svg id="es8IBStzY5r1" xmlns="http://www.w3.org/2000/svg" xmlns:xlink="http://www.w3.org/1999/xlink" viewBox="0 0 1059 1055" shape-rendering="geometricPrecision" text-rendering="geometricPrecision" project-id="47f351435e0f4677a3897a0d459b8d9e" export-id="f65bcdf94e784d54b7e20acd0675b9ef" cached="false"><path d="M528.506529,742.78571c-.83746-113.325403,87.679253-216.279838,215.852432-216.166665c0,118.518305-96.25385,216.042369-215.852432,216.166665Z" transform="translate(1.613515 0.881716)" stroke="#000" stroke-width="2.118"/><path d="M527.805781,741.995415c-.83746-113.325403,88.380001-215.489543,216.55318-215.37637c0,37.614632.534096,188.778172.534096,188.778172c0,16.974979-14.017514,25.912575-29.727402,26.49096c0,0-143.438829.061592-187.359874.107238Z" transform="translate(-214.773013-214.494654)" stroke="#000" stroke-width="2.118"/><path d="M527.13512,742.444942c-.83746-113.325403,88.786722-216.054215,216.959901-215.941042c0,37.614632.798036,188.893317.798036,188.893317c0,16.974979-14.017514,25.912575-29.727402,26.49096c0,0-144.10949.511119-188.030535.556765Z" transform="matrix(0-.992207 1.002063 0 1.995871 1050.420679)" stroke="#000" stroke-width="2.118"/><path d="M528.511801,742.660026c-.83746-113.325403,87.673981-216.154154,215.84716-216.040981c0,118.518305-96.248578,215.916685-215.84716,216.040981Z" transform="matrix(0 1-1 0 1055.692794-.691535)" stroke="#000" stroke-width="2.118"/></svg>
